<?xml version="1.0" encoding="UTF-8" standalone="no"?>
<svg
   role="img"
   viewBox="0 0 24 24"
   version="1.1"
   id="svg235"
   sodipodi:docname="logo.svg"
   inkscape:version="1.1.1 (3bf5ae0d25, 2021-09-20, custom)"
   xmlns:inkscape="http://www.inkscape.org/namespaces/inkscape"
   xmlns:sodipodi="http://sodipodi.sourceforge.net/DTD/sodipodi-0.dtd"
   xmlns="http://www.w3.org/2000/svg"
   xmlns:svg="http://www.w3.org/2000/svg"
   xmlns:rdf="http://www.w3.org/1999/02/22-rdf-syntax-ns#"
   xmlns:cc="http://creativecommons.org/ns#"
   xmlns:dc="http://purl.org/dc/elements/1.1/">
  <defs
     id="defs239">
    <marker
       style="overflow:visible"
       id="TriangleOutL"
       refX="0.0"
       refY="0.0"
       orient="auto"
       inkscape:stockid="TriangleOutL"
       inkscape:isstock="true">
      <path
         transform="scale(0.8)"
         style="fill-rule:evenodd;fill:context-stroke;stroke:context-stroke;stroke-width:1.0pt"
         d="M 5.77,0.0 L -2.88,5.0 L -2.88,-5.0 L 5.77,0.0 z "
         id="path2079" />
    </marker>
  </defs>
  <sodipodi:namedview
     id="namedview237"
     pagecolor="#ffffff"
     bordercolor="#666666"
     borderopacity="1.0"
     inkscape:pageshadow="2"
     inkscape:pageopacity="0.0"
     inkscape:pagecheckerboard="0"
     showgrid="false"
     inkscape:zoom="23.36362"
     inkscape:cx="16.2004"
     inkscape:cy="11.06421"
     inkscape:window-width="1896"
     inkscape:window-height="1018"
     inkscape:window-x="12"
     inkscape:window-y="50"
     inkscape:window-maximized="1"
     inkscape:current-layer="svg235" />
  <title
     id="title231">Discord</title>
  <g
     id="g4278"
     transform="translate(0.34471455,-0.08150986)">
    <path
       d="m 19.56422,4.3136126 a 19.057998,19.057998 0 0 0 -4.704099,-1.4590592 0.07135447,0.07135447 0 0 0 -0.07559,0.035725 c -0.203182,0.3613945 -0.428224,0.8327577 -0.585762,1.2032039 -1.77635,-0.2659664 -3.543649,-0.2659664 -5.2835043,0 C 8.7577253,3.7147551 8.5244993,3.2516733 8.3204505,2.8902788 A 0.07414702,0.07414702 0 0 0 8.2448591,2.8546497 19.005036,19.005036 0 0 0 3.5406643,4.3135163 0.06731008,0.06731008 0 0 0 3.5097537,4.34019 C 0.51363645,8.8163587 -0.30718064,13.182462 0.09552432,17.494448 a 0.07934694,0.07934694 0 0 0 0.03004398,0.05402 c 1.9767402,1.451741 3.8915628,2.333031 5.7708526,2.917155 a 0.07482108,0.07482108 0 0 0 0.08108,-0.02658 C 6.4219979,19.832 6.8182511,19.191832 7.1580755,18.518731 A 0.07318407,0.07318407 0 0 0 7.1180171,18.416953 C 6.4894044,18.178527 5.8909321,17.887813 5.3151853,17.557714 a 0.07414702,0.07414702 0 0 1 -0.00732,-0.122968 C 5.4290058,17.34394 5.550241,17.249571 5.6658911,17.154142 a 0.07154706,0.07154706 0 0 1 0.074725,-0.01011 c 3.7822681,1.726856 7.8769169,1.726856 11.6145039,0 a 0.07116188,0.07116188 0 0 1 0.07559,0.0091 c 0.115747,0.09533 0.236886,0.190761 0.358987,0.281567 a 0.07414702,0.07414702 0 0 1 -0.0064,0.122872 11.842915,11.842915 0 0 1 -1.803602,0.858372 0.07376184,0.07376184 0 0 0 -0.03919,0.102746 c 0.347047,0.672138 0.7433,1.312306 1.179612,1.919349 a 0.07318407,0.07318407 0 0 0 0.08108,0.02754 c 1.888341,-0.584221 3.803164,-1.465511 5.779904,-2.917155 a 0.07414702,0.07414702 0 0 0 0.03014,-0.05315 C 23.493145,12.510132 22.204142,8.1798499 19.594264,4.3410566 a 0.05873984,0.05873984 0 0 0 -0.03004,-0.02754 z M 7.7228449,14.868874 c -1.1386864,0 -2.0769831,-1.045473 -2.0769831,-2.329372 0,-1.283803 0.920097,-2.329276 2.0770793,-2.329276 1.1659378,0 2.0950866,1.054621 2.0768868,2.329372 0,1.283803 -0.920097,2.329276 -2.076983,2.329276 z m 7.6793201,0 c -1.138687,0 -2.076983,-1.045473 -2.076983,-2.329372 0,-1.283803 0.92,-2.329276 2.076983,-2.329276 1.165937,0 2.095086,1.054621 2.076886,2.329372 0,1.283803 -0.910949,2.329276 -2.076886,2.329276 z"
       id="path233"
       style="fill:#5865f2;fill-opacity:1;stroke:none;stroke-width:0.962948;stroke-opacity:1" />
    <path
       id="rect1715"
       style="fill:#7fd900;fill-opacity:1;stroke:#ffffff;stroke-width:0.305255;stroke-linecap:round;stroke-linejoin:round;stroke-miterlimit:4;stroke-dasharray:none;stroke-opacity:1"
       d="m 17.56064,4.3411891 c -0.649465,0 -1.171712,0.522247 -1.171712,1.1717124 v 8.9618135 c -1.323409,0.09991 -2.380674,0.303947 -2.616135,0.611247 -0.697795,0.910691 3.255525,6.071087 4.651115,6.071087 1.39559,0 5.348911,-5.160396 4.651116,-6.071087 -0.235686,-0.307593 -1.294717,-0.511438 -2.619896,-0.611247 V 5.5129015 c 0,-0.6494654 -0.522248,-1.1717124 -1.171713,-1.1717124 z" />
  </g>
  <metadata
     id="metadata4305">
    <rdf:RDF>
      <cc:Work
         rdf:about="">
        <dc:title>Discord</dc:title>
      </cc:Work>
    </rdf:RDF>
  </metadata>
</svg>
