<svg role="img" version="1.1" viewBox="0 0 24 24" xmlns="http://www.w3.org/2000/svg">
  <title>Discord</title>
  <g transform="translate(.3447 -.08151)">
    <path d="m19.56 4.314a19.06 19.06 0 0 0-4.704-1.459 0.07135 0.07135 0 0 0-0.07559 0.03572c-0.2032 0.3614-0.4282 0.8328-0.5858 1.203-1.776-0.266-3.544-0.266-5.284 0-0.1575-0.3787-0.3908-0.8418-0.5948-1.203a0.07415 0.07415 0 0 0-0.07559-0.03563 19.01 19.01 0 0 0-4.704 1.459 0.06731 0.06731 0 0 0-0.03091 0.02667c-2.996 4.476-3.817 8.842-3.414 13.15a0.07935 0.07935 0 0 0 0.03004 0.05402c1.977 1.452 3.892 2.333 5.771 2.917a0.07482 0.07482 0 0 0 0.08108-0.02658c0.4445-0.607 0.8408-1.247 1.181-1.92a0.07318 0.07318 0 0 0-0.04006-0.1018c-0.6286-0.2384-1.227-0.5291-1.803-0.8592a0.07415 0.07415 0 0 1-0.00732-0.123c0.1211-0.09081 0.2424-0.1852 0.358-0.2806a0.07155 0.07155 0 0 1 0.07472-0.01011c3.782 1.727 7.877 1.727 11.61 0a0.07116 0.07116 0 0 1 0.07559 0.0091c0.1157 0.09533 0.2369 0.1908 0.359 0.2816a0.07415 0.07415 0 0 1-0.0064 0.1229 11.84 11.84 0 0 1-1.804 0.8584 0.07376 0.07376 0 0 0-0.03919 0.1027c0.347 0.6721 0.7433 1.312 1.18 1.919a0.07318 0.07318 0 0 0 0.08108 0.02754c1.888-0.5842 3.803-1.466 5.78-2.917a0.07415 0.07415 0 0 0 0.03014-0.05315c0.4819-4.985-0.8071-9.315-3.417-13.15a0.05874 0.05874 0 0 0-0.03004-0.02754zm-11.84 10.56c-1.139 0-2.077-1.045-2.077-2.329 0-1.284 0.9201-2.329 2.077-2.329 1.166 0 2.095 1.055 2.077 2.329 0 1.284-0.9201 2.329-2.077 2.329zm7.679 0c-1.139 0-2.077-1.045-2.077-2.329 0-1.284 0.92-2.329 2.077-2.329 1.166 0 2.095 1.055 2.077 2.329 0 1.284-0.9109 2.329-2.077 2.329z" fill="#5865f2"/>
    <path d="m17.56 4.341c-0.6495 0-1.172 0.5222-1.172 1.172v8.962c-1.323 0.09991-2.381 0.3039-2.616 0.6112-0.6978 0.9107 3.256 6.071 4.651 6.071s5.349-5.16 4.651-6.071c-0.2357-0.3076-1.295-0.5114-2.62-0.6112v-8.962c0-0.6495-0.5222-1.172-1.172-1.172z" fill="#7fd900" stroke="#fff" stroke-linecap="round" stroke-linejoin="round" stroke-width=".3053"/>
  </g>
</svg>
