<svg xmlns="http://www.w3.org/2000/svg" width="18" height="18">
    <path fill="#3ba55c" fill-rule="evenodd" d="M17.716 15.366c-.019.027-1.904 2.668-2.996 2.633-3.068-.098-6.673-3.072-9.157-5.549C3.08 9.974.098 6.379 0 3.306v-.025C0 2.206 2.614.315 2.641.297c.711-.497 1.492-.315 1.81.137.193.274 2.197 3.281 2.423 3.649.099.161.147.355.147.57 0 .274-.08.577-.237.875-.1528.290-.653 1.166-.899 1.595.267.377.948 1.264 2.351 2.664 1.392 1.39 2.289 2.076 2.67 2.342.43-.245 1.309-.742 1.597-.894.545-.287 1.091-.319 1.457-.087.346.218 3.34 2.21 3.623 2.416.2695.192.414.54.414.917 0 .297-.09.612-.281.885"/>
</svg>